<?xml version="1.0" encoding="UTF-8"?>
<svg id="a" data-name="Layer 1" xmlns="http://www.w3.org/2000/svg" viewBox="0 0 500 500">
  <defs>
    <style>
      .b {
        fill: #fff;
        stroke-width: 0px;
      }
    </style>
  </defs>
  <path class="b" d="M454.88,294.7c-13.41,71.62-84.94,158.8-199.4,161.01-108.43,2.1-202.73-84.71-209.87-193.69-7.63-116.4,76.06-200.61,161.04-217.78-55.43,41.21-86.15,94.34-82.06,163.8,2.78,47.36,22.38,87.89,57.4,120.08,40.56,37.3,88.78,53.52,143.6,46.89,54.82-6.63,96.76-35.39,129.3-80.31Z"/>
  <path class="b" d="M297.18,360.41c-32.3-.34-67.2-12.95-97.76-37.81-3.82-3.11-4.28-5.47-1.78-9.57,22.49-36.95,55.25-56.45,98.51-54.42,43.75,2.06,75.03,24.63,93.54,64.31,5.75,12.32,5.07,9.63-5.2,15.64-24.72,14.47-51.5,21.94-87.31,21.84Z"/>
  <path class="b" d="M292.45,73.58c-15.44,16.97-18.55,31.13-10.41,45.68,8.46,15.13,24.04,20.66,45.87,16.31-5.53,15.89-27.82,26.21-46.41,21.49-22.54-5.72-36.14-26.68-32.11-49.49,3.6-20.41,22.75-35.78,43.06-33.98Z"/>
  <path class="b" d="M251.31,248.76c-.83-18.14,16.78-35.17,37.63-37.07,20.77-1.89,40.03,14.39,42.97,37.25-26.99-8.73-53.82-8.92-80.6-.19Z"/>
  <path class="b" d="M299.08,168.85v32.1h-15.6v-32.1h15.6Z"/>
</svg>